<svg width="468" height="161" viewBox="0 0 468 161" fill="none" xmlns="http://www.w3.org/2000/svg">
<path d="M85.6855 89.8923C85.3903 85.4641 84.3571 81.2574 82.5858 77.272C80.9621 73.2866 78.6742 69.8917 75.7221 67.0871C72.9176 64.135 69.5226 61.8471 65.5373 60.2234C61.6995 58.4522 57.4189 57.5665 52.6955 57.5665C47.8245 57.5665 43.3963 58.4522 39.4109 60.2234C35.5732 61.8471 32.252 64.135 29.4475 67.0871C26.643 70.0393 24.4289 73.508 22.8052 77.4934C21.1815 81.3312 20.2221 85.4641 19.9269 89.8923H85.6855ZM103.841 121.775C101.332 134.617 95.7966 144.285 87.2354 150.78C78.6742 157.275 67.899 160.522 54.9096 160.522C45.758 160.522 37.7873 159.046 30.9974 156.094C24.3551 153.142 18.746 149.009 14.1702 143.695C9.59442 138.381 6.12567 132.034 3.76396 124.654C1.54987 117.273 0.295213 109.229 0 100.52C0 91.8112 1.32846 83.8405 3.98537 76.6078C6.64229 69.375 10.3325 63.1018 15.0559 57.7879C19.9269 52.4741 25.6097 48.3411 32.1044 45.389C38.7467 42.4369 45.9794 40.9608 53.8026 40.9608C63.9874 40.9608 72.401 43.1011 79.0433 47.3817C85.8332 51.5147 91.2208 56.8285 95.2062 63.3232C99.3391 69.8179 102.144 76.903 103.62 84.5785C105.243 92.254 105.908 99.5606 105.612 106.498H19.9269C19.7793 111.517 20.3697 116.314 21.6981 120.89C23.0266 125.318 25.1669 129.303 28.119 132.846C31.0712 136.241 34.8351 138.971 39.4109 141.038C43.9867 143.104 49.3744 144.138 55.5738 144.138C63.5446 144.138 70.0393 142.293 75.0579 138.602C80.2241 134.912 83.6191 129.303 85.2427 121.775H103.841Z" fill="white"/>
<path d="M213.242 157.644C209.994 159.563 205.492 160.522 199.736 160.522C194.865 160.522 190.953 159.194 188.001 156.537C185.197 153.732 183.794 149.23 183.794 143.031C178.628 149.23 172.576 153.732 165.639 156.537C158.849 159.194 151.468 160.522 143.498 160.522C138.331 160.522 133.387 159.932 128.663 158.751C124.087 157.57 120.102 155.725 116.707 153.216C113.312 150.706 110.581 147.459 108.515 143.473C106.596 139.34 105.637 134.396 105.637 128.639C105.637 122.144 106.744 116.831 108.958 112.698C111.172 108.565 114.05 105.243 117.593 102.734C121.283 100.077 125.416 98.0845 129.992 96.756C134.715 95.4276 139.512 94.3205 144.383 93.4349C149.55 92.4016 154.421 91.6636 158.996 91.2208C163.72 90.6304 167.853 89.8923 171.395 89.0067C174.938 87.9735 177.742 86.5712 179.809 84.7999C181.875 82.881 182.909 80.1503 182.909 76.6078C182.909 72.4748 182.097 69.1536 180.473 66.6443C178.997 64.135 177.004 62.2161 174.495 60.8877C172.133 59.5592 169.403 58.6736 166.303 58.2308C163.351 57.7879 160.399 57.5665 157.447 57.5665C149.476 57.5665 142.833 59.1164 137.52 62.2161C132.206 65.1683 129.327 70.8511 128.885 79.2647H110.065C110.36 72.1796 111.836 66.2015 114.493 61.3305C117.15 56.4595 120.692 52.5479 125.121 49.5958C129.549 46.496 134.568 44.2819 140.177 42.9535C145.933 41.625 152.059 40.9608 158.554 40.9608C163.72 40.9608 168.812 41.3298 173.831 42.0678C178.997 42.8059 183.647 44.3557 187.78 46.7174C191.913 48.9315 195.234 52.1051 197.743 56.2381C200.252 60.371 201.507 65.7587 201.507 72.401V131.296C201.507 135.724 201.728 138.971 202.171 141.038C202.762 143.104 204.533 144.138 207.485 144.138C209.109 144.138 211.028 143.769 213.242 143.031V157.644ZM182.687 98.9701C180.326 100.741 177.226 102.07 173.388 102.956C169.55 103.694 165.491 104.358 161.21 104.948C157.077 105.391 152.871 105.981 148.59 106.719C144.31 107.31 140.472 108.343 137.077 109.819C133.682 111.295 130.877 113.436 128.663 116.24C126.597 118.897 125.564 122.587 125.564 127.311C125.564 130.41 126.154 133.067 127.335 135.281C128.663 137.348 130.287 139.045 132.206 140.374C134.272 141.702 136.634 142.662 139.291 143.252C141.948 143.843 144.752 144.138 147.704 144.138C153.904 144.138 159.218 143.326 163.646 141.702C168.074 139.931 171.691 137.791 174.495 135.281C177.3 132.624 179.366 129.82 180.695 126.868C182.023 123.768 182.687 120.89 182.687 118.233V98.9701Z" fill="white"/>
<path d="M218.58 0H237.4V158.087H218.58V0Z" fill="white"/>
<path d="M253.27 0H272.09V60.4449H272.533C274.009 56.9023 276.075 53.9502 278.732 51.5885C281.389 49.0792 284.341 47.0865 287.589 45.6104C290.984 43.9867 294.452 42.8059 297.995 42.0678C301.685 41.3298 305.228 40.9608 308.623 40.9608C316.151 40.9608 322.424 41.994 327.442 44.0605C332.461 46.127 336.52 49.0053 339.62 52.6955C342.72 56.3857 344.86 60.8139 346.041 65.9801C347.369 70.9987 348.034 76.6078 348.034 82.8072V158.087H329.214V80.5931C329.214 73.508 327.147 67.899 323.014 63.766C318.881 59.633 313.198 57.5665 305.966 57.5665C300.209 57.5665 295.19 58.4522 290.91 60.2234C286.777 61.9947 283.308 64.504 280.504 67.7514C277.699 70.9987 275.559 74.8365 274.083 79.2647C272.754 83.5453 272.09 88.2687 272.09 93.4349V158.087H253.27V0Z" fill="white"/>
<path d="M376.742 100.963C376.742 107.9 377.628 114.1 379.399 119.561C381.318 124.875 383.901 129.377 387.149 133.067C390.396 136.61 394.16 139.341 398.441 141.259C402.869 143.178 407.518 144.138 412.389 144.138C417.26 144.138 421.836 143.178 426.117 141.259C430.545 139.341 434.383 136.61 437.63 133.067C440.877 129.377 443.387 124.875 445.158 119.561C447.077 114.1 448.036 107.9 448.036 100.963C448.036 94.0253 447.077 87.8996 445.158 82.5858C443.387 77.1244 440.877 72.5486 437.63 68.8584C434.383 65.1683 430.545 62.3637 426.117 60.4449C421.836 58.526 417.26 57.5665 412.389 57.5665C407.518 57.5665 402.869 58.526 398.441 60.4449C394.16 62.3637 390.396 65.1683 387.149 68.8584C383.901 72.5486 381.318 77.1244 379.399 82.5858C377.628 87.8996 376.742 94.0253 376.742 100.963ZM356.816 100.963C356.816 92.5493 357.996 84.7261 360.358 77.4934C362.72 70.1131 366.262 63.766 370.986 58.4522C375.709 52.9907 381.54 48.7101 388.477 45.6104C395.415 42.5107 403.385 40.9608 412.389 40.9608C421.541 40.9608 429.512 42.5107 436.302 45.6104C443.239 48.7101 449.07 52.9907 453.793 58.4522C458.516 63.766 462.059 70.1131 464.421 77.4934C466.782 84.7261 467.963 92.5493 467.963 100.963C467.963 109.376 466.782 117.2 464.421 124.432C462.059 131.665 458.516 138.012 453.793 143.473C449.07 148.787 443.239 152.994 436.302 156.094C429.512 159.046 421.541 160.522 412.389 160.522C403.385 160.522 395.415 159.046 388.477 156.094C381.54 152.994 375.709 148.787 370.986 143.473C366.262 138.012 362.72 131.665 360.358 124.432C357.996 117.2 356.816 109.376 356.816 100.963Z" fill="white"/>
</svg>
