<svg width="340" height="129" viewBox="0 0 340 129" fill="none" xmlns="http://www.w3.org/2000/svg">
<path d="M339.328 102.662C337.673 104.016 335.641 105.032 333.234 105.709C330.902 106.386 328.419 106.725 325.786 106.725C319.165 106.725 314.049 104.994 310.438 101.533C306.827 98.0728 305.021 93.0321 305.021 86.4116V32.3564H319.127V46.1241H335.265V57.4092H319.127V86.0731C319.127 89.0072 319.842 91.2641 321.272 92.844C322.776 94.3487 324.845 95.1011 327.478 95.1011C330.638 95.1011 333.271 94.2735 335.378 92.6183L339.328 102.662Z" fill="#FFF4E0"/>
<path d="M279.549 90.8626C285.237 87.624 288.897 83.0292 290.53 77.0781L301.302 80.944C300.614 85.0582 298.882 88.8581 296.105 92.3438C293.328 95.8296 289.684 98.8567 285.173 101.425C279.42 104.701 273.702 106.442 268.019 106.648C262.335 106.854 257.13 105.619 252.403 102.942C247.704 100.164 243.885 96.1919 240.944 91.027C238.04 85.9275 236.579 80.6996 236.559 75.3433C236.567 69.8843 237.947 64.8567 240.697 60.2605C243.513 55.6271 247.504 51.8399 252.669 48.8991C257.572 46.1072 262.632 44.6546 267.848 44.5414C273.093 44.3255 278.028 45.5415 282.652 48.1895C287.239 50.7721 291.04 54.7112 294.056 60.0068L258.413 90.69C261.368 92.9902 264.664 94.143 268.304 94.1486C271.943 94.1542 275.691 93.0589 279.549 90.8626ZM258.252 58.7059C253.741 61.2744 250.918 64.8301 249.781 69.3728C248.711 73.8783 249.59 78.6154 252.419 83.5841L252.475 83.6822L278.853 61.1312C276.179 58.4116 272.976 56.8156 269.244 56.3433C265.577 55.8337 261.914 56.6212 258.252 58.7059Z" fill="#FFF4E0"/>
<path d="M230.455 45.6729V96.7939C230.455 118.01 220.035 128.618 199.195 128.618C193.703 128.618 188.437 127.865 183.396 126.361C178.431 124.931 174.331 122.825 171.096 120.041L177.415 109.433C179.973 111.615 183.095 113.345 186.782 114.624C190.468 115.903 194.343 116.543 198.405 116.543C204.574 116.543 209.088 115.038 211.947 112.029C214.881 109.095 216.348 104.543 216.348 98.3738V95.5526C214.091 98.0353 211.345 99.9537 208.11 101.308C204.875 102.587 201.377 103.226 197.615 103.226C189.565 103.226 183.208 101.007 178.544 96.5682C173.954 92.1294 171.66 85.4713 171.66 76.5938V45.6729H185.766V74.7882C185.766 80.1297 186.97 84.1547 189.377 86.8631C191.86 89.4963 195.358 90.8129 199.872 90.8129C204.913 90.8129 208.9 89.2706 211.834 86.186C214.844 83.1014 216.348 78.6251 216.348 72.7569V45.6729H230.455Z" fill="#FFF4E0"/>
<path d="M146.262 45.6729H160.368V105.935H146.262V45.6729Z" fill="#FFF4E0"/>
<path d="M134.576 45.6729V105.935H121.147V98.1482C118.815 101.007 115.918 103.151 112.458 104.581C109.072 106.01 105.31 106.725 101.173 106.725C95.3044 106.725 90.0381 105.446 85.3736 102.888C80.7844 100.33 77.1732 96.7188 74.54 92.0543C71.9821 87.3898 70.7031 81.973 70.7031 75.8039C70.7031 69.6348 71.9821 64.2556 74.54 59.6663C77.1732 55.0019 80.7844 51.3907 85.3736 48.8327C90.0381 46.2748 95.3044 44.9958 101.173 44.9958C105.085 44.9958 108.658 45.6729 111.893 47.0271C115.204 48.3813 118.063 50.375 120.47 53.0082V45.6729H134.576ZM102.753 94.6499C107.944 94.6499 112.232 92.9195 115.617 89.4587C119.003 85.998 120.696 81.4464 120.696 75.8039C120.696 70.1614 119.003 65.6098 115.617 62.1491C112.232 58.6883 107.944 56.958 102.753 56.958C97.5614 56.958 93.2731 58.6883 89.8876 62.1491C86.5774 65.6098 84.9222 70.1614 84.9222 75.8039C84.9222 81.4464 86.5774 85.998 89.8876 89.4587C93.2731 92.9195 97.5614 94.6499 102.753 94.6499Z" fill="#FFF4E0"/>
<path d="M63.986 22.2V105.935H50.444V98.148C48.1117 101.007 45.2152 103.151 41.7545 104.58C38.369 106.01 34.6073 106.725 30.4695 106.725C24.6765 106.725 19.4478 105.446 14.7834 102.888C10.1941 100.33 6.58292 96.7186 3.94975 92.0541C1.31658 87.3144 0 81.8976 0 75.8037C0 69.7098 1.31658 64.3306 3.94975 59.6662C6.58292 55.0017 10.1941 51.3905 14.7834 48.8326C19.4478 46.2746 24.6765 44.9957 30.4695 44.9957C34.4569 44.9957 38.1057 45.6728 41.416 47.027C44.7262 48.3812 47.5475 50.4125 49.8797 53.1209V22.2H63.986ZM32.1623 94.6497C35.5478 94.6497 38.5947 93.8973 41.3031 92.3927C44.0115 90.8128 46.1557 88.5934 47.7356 85.7345C49.3155 82.8756 50.1054 79.5654 50.1054 75.8037C50.1054 72.042 49.3155 68.7318 47.7356 65.8729C46.1557 63.014 44.0115 60.8323 41.3031 59.3276C38.5947 57.7477 35.5478 56.9578 32.1623 56.9578C28.7768 56.9578 25.7298 57.7477 23.0214 59.3276C20.313 60.8323 18.1689 63.014 16.589 65.8729C15.0091 68.7318 14.2191 72.042 14.2191 75.8037C14.2191 79.5654 15.0091 82.8756 16.589 85.7345C18.1689 88.5934 20.313 90.8128 23.0214 92.3927C25.7298 93.8973 28.7768 94.6497 32.1623 94.6497Z" fill="#FFF4E0"/>
<path d="M277.5 14.8C260.85 18.5 256.965 29.9145 253.117 39.479L256.614 40.7L258.371 36.4451C259.259 36.7596 260.184 37 260.85 37C281.2 37 286.75 5.55005 286.75 5.55005C284.9 9.25005 271.95 9.71255 262.7 11.5625C253.45 13.4125 249.75 21.275 249.75 24.975C249.75 28.675 252.988 31.9125 252.988 31.9125C259 14.8 277.5 14.8 277.5 14.8Z" fill="#E5FF53"/>
</svg>
